<mxfile host="Electron" modified="2024-08-20T16:57:34.246Z" agent="Mozilla/5.0 (Windows NT 10.0; Win64; x64) AppleWebKit/537.36 (KHTML, like Gecko) draw.io/23.0.2 Chrome/120.0.6099.109 Electron/28.1.0 Safari/537.36" etag="KvrcWdYICvsXIiy6ED2R" version="23.0.2" type="device">
  <diagram name="第 1 页" id="mvMggE6jEEcCf9ZD2xqr">
    <mxGraphModel dx="1878" dy="1266" grid="1" gridSize="10" guides="1" tooltips="1" connect="1" arrows="1" fold="1" page="1" pageScale="1" pageWidth="827" pageHeight="1169" math="0" shadow="0">
      <root>
        <mxCell id="0" />
        <mxCell id="1" parent="0" />
        <mxCell id="aM6yOoi2YgJckzfjnblt-9" value="" style="shape=mxgraph.cisco.servers.fileserver;sketch=0;html=1;pointerEvents=1;dashed=0;fillColor=#036897;strokeColor=#ffffff;strokeWidth=2;verticalLabelPosition=bottom;verticalAlign=top;align=center;outlineConnect=0;" vertex="1" parent="1">
          <mxGeometry x="655" y="194" width="60" height="88" as="geometry" />
        </mxCell>
        <mxCell id="aM6yOoi2YgJckzfjnblt-10" value="" style="shape=mxgraph.cisco.computers_and_peripherals.terminal;sketch=0;html=1;pointerEvents=1;dashed=0;fillColor=#036897;strokeColor=#ffffff;strokeWidth=2;verticalLabelPosition=bottom;verticalAlign=top;align=center;outlineConnect=0;" vertex="1" parent="1">
          <mxGeometry x="160" y="200" width="81" height="76" as="geometry" />
        </mxCell>
        <mxCell id="aM6yOoi2YgJckzfjnblt-15" value="" style="group" vertex="1" connectable="0" parent="1">
          <mxGeometry x="320" y="20" width="270" height="175" as="geometry" />
        </mxCell>
        <mxCell id="aM6yOoi2YgJckzfjnblt-1" value="&lt;font style=&quot;font-size: 10px;&quot;&gt;&lt;b&gt;MAC&lt;/b&gt;&lt;/font&gt;" style="rounded=1;whiteSpace=wrap;html=1;container=0;fillColor=#fff2cc;strokeColor=#d6b656;" vertex="1" parent="aM6yOoi2YgJckzfjnblt-15">
          <mxGeometry width="57.85714285714286" height="35.00000000000001" as="geometry" />
        </mxCell>
        <mxCell id="aM6yOoi2YgJckzfjnblt-2" value="&lt;font style=&quot;font-size: 10px;&quot;&gt;源MAC：新设备MAC&lt;br&gt;目标MAC：广播MAC（ff:ff:ff:ff:ff:ff）&lt;/font&gt;" style="rounded=1;whiteSpace=wrap;html=1;container=0;fillColor=#fff2cc;strokeColor=#d6b656;" vertex="1" parent="aM6yOoi2YgJckzfjnblt-15">
          <mxGeometry x="57.85714285714286" width="212.14285714285717" height="35" as="geometry" />
        </mxCell>
        <mxCell id="aM6yOoi2YgJckzfjnblt-3" value="&lt;font style=&quot;font-size: 10px;&quot;&gt;&lt;b&gt;IP&lt;/b&gt;&lt;/font&gt;" style="rounded=1;whiteSpace=wrap;html=1;container=0;fillColor=#fff2cc;strokeColor=#d6b656;" vertex="1" parent="aM6yOoi2YgJckzfjnblt-15">
          <mxGeometry y="35.00000000000001" width="57.85714285714286" height="35.00000000000001" as="geometry" />
        </mxCell>
        <mxCell id="aM6yOoi2YgJckzfjnblt-4" value="&lt;font style=&quot;font-size: 10px;&quot;&gt;新人IP：0.0.0.0&lt;br&gt;广播IP：255.255.255.255&amp;nbsp;&lt;/font&gt;" style="rounded=1;whiteSpace=wrap;html=1;container=0;fillColor=#fff2cc;strokeColor=#d6b656;" vertex="1" parent="aM6yOoi2YgJckzfjnblt-15">
          <mxGeometry x="57.85714285714286" y="35" width="212.14285714285717" height="35" as="geometry" />
        </mxCell>
        <mxCell id="aM6yOoi2YgJckzfjnblt-5" value="&lt;font style=&quot;font-size: 10px;&quot;&gt;&lt;b&gt;UDP&lt;/b&gt;&lt;/font&gt;" style="rounded=1;whiteSpace=wrap;html=1;container=0;fillColor=#fff2cc;strokeColor=#d6b656;" vertex="1" parent="aM6yOoi2YgJckzfjnblt-15">
          <mxGeometry y="70.00000000000001" width="57.85714285714286" height="35.00000000000001" as="geometry" />
        </mxCell>
        <mxCell id="aM6yOoi2YgJckzfjnblt-6" value="&lt;font style=&quot;font-size: 10px;&quot;&gt;&amp;nbsp;源端口：68&lt;br&gt;目标端口：67&lt;/font&gt;" style="rounded=1;whiteSpace=wrap;html=1;container=0;fillColor=#fff2cc;strokeColor=#d6b656;" vertex="1" parent="aM6yOoi2YgJckzfjnblt-15">
          <mxGeometry x="57.85714285714286" y="70" width="212.14285714285717" height="35" as="geometry" />
        </mxCell>
        <mxCell id="aM6yOoi2YgJckzfjnblt-7" value="&lt;font style=&quot;font-size: 10px;&quot;&gt;&lt;b&gt;BOOTP头&lt;/b&gt;&lt;/font&gt;" style="rounded=1;whiteSpace=wrap;html=1;container=0;fillColor=#fff2cc;strokeColor=#d6b656;" vertex="1" parent="aM6yOoi2YgJckzfjnblt-15">
          <mxGeometry y="105" width="57.85714285714286" height="35.00000000000001" as="geometry" />
        </mxCell>
        <mxCell id="aM6yOoi2YgJckzfjnblt-8" value="&lt;font style=&quot;font-size: 10px;&quot;&gt;Boot request&amp;nbsp;&lt;/font&gt;" style="rounded=1;whiteSpace=wrap;html=1;container=0;fillColor=#fff2cc;strokeColor=#d6b656;" vertex="1" parent="aM6yOoi2YgJckzfjnblt-15">
          <mxGeometry x="57.85714285714286" y="105" width="212.14285714285717" height="35" as="geometry" />
        </mxCell>
        <mxCell id="aM6yOoi2YgJckzfjnblt-13" value="&lt;font style=&quot;font-size: 10px;&quot;&gt;&lt;b&gt;报文&lt;/b&gt;&lt;/font&gt;" style="rounded=1;whiteSpace=wrap;html=1;container=0;fillColor=#fff2cc;strokeColor=#d6b656;" vertex="1" parent="aM6yOoi2YgJckzfjnblt-15">
          <mxGeometry y="140" width="57.85714285714286" height="35.00000000000001" as="geometry" />
        </mxCell>
        <mxCell id="aM6yOoi2YgJckzfjnblt-14" value="&lt;font style=&quot;font-size: 10px;&quot;&gt;我的Mac是这个&lt;br&gt;我还没IP&lt;/font&gt;" style="rounded=1;whiteSpace=wrap;html=1;container=0;fillColor=#fff2cc;strokeColor=#d6b656;" vertex="1" parent="aM6yOoi2YgJckzfjnblt-15">
          <mxGeometry x="57.85714285714286" y="140" width="212.14285714285717" height="35" as="geometry" />
        </mxCell>
        <mxCell id="aM6yOoi2YgJckzfjnblt-16" value="&lt;b&gt;新加入的机器&lt;/b&gt;" style="text;html=1;strokeColor=none;fillColor=none;align=center;verticalAlign=middle;whiteSpace=wrap;rounded=0;" vertex="1" parent="1">
          <mxGeometry x="160" y="282" width="80" height="30" as="geometry" />
        </mxCell>
        <mxCell id="aM6yOoi2YgJckzfjnblt-18" value="&lt;b&gt;DHCP Server&lt;/b&gt;" style="text;html=1;strokeColor=none;fillColor=none;align=center;verticalAlign=middle;whiteSpace=wrap;rounded=0;" vertex="1" parent="1">
          <mxGeometry x="637.5" y="282" width="95" height="30" as="geometry" />
        </mxCell>
        <mxCell id="aM6yOoi2YgJckzfjnblt-20" style="edgeStyle=orthogonalEdgeStyle;rounded=0;orthogonalLoop=1;jettySize=auto;html=1;exitX=1;exitY=0.5;exitDx=0;exitDy=0;exitPerimeter=0;entryX=0;entryY=0.5;entryDx=0;entryDy=0;entryPerimeter=0;strokeWidth=2;" edge="1" parent="1" source="aM6yOoi2YgJckzfjnblt-10" target="aM6yOoi2YgJckzfjnblt-9">
          <mxGeometry relative="1" as="geometry" />
        </mxCell>
        <mxCell id="aM6yOoi2YgJckzfjnblt-23" value="&lt;b&gt;Boot request&lt;/b&gt;" style="text;html=1;strokeColor=none;fillColor=none;align=center;verticalAlign=middle;whiteSpace=wrap;rounded=0;" vertex="1" parent="1">
          <mxGeometry x="410" y="210" width="80" height="30" as="geometry" />
        </mxCell>
        <mxCell id="aM6yOoi2YgJckzfjnblt-24" value="" style="shape=mxgraph.cisco.servers.fileserver;sketch=0;html=1;pointerEvents=1;dashed=0;fillColor=#036897;strokeColor=#ffffff;strokeWidth=2;verticalLabelPosition=bottom;verticalAlign=top;align=center;outlineConnect=0;" vertex="1" parent="1">
          <mxGeometry x="658.75" y="470" width="60" height="88" as="geometry" />
        </mxCell>
        <mxCell id="aM6yOoi2YgJckzfjnblt-25" value="" style="shape=mxgraph.cisco.computers_and_peripherals.terminal;sketch=0;html=1;pointerEvents=1;dashed=0;fillColor=#036897;strokeColor=#ffffff;strokeWidth=2;verticalLabelPosition=bottom;verticalAlign=top;align=center;outlineConnect=0;" vertex="1" parent="1">
          <mxGeometry x="163.75" y="476" width="81" height="76" as="geometry" />
        </mxCell>
        <mxCell id="aM6yOoi2YgJckzfjnblt-26" value="&lt;b&gt;新加入的机器&lt;/b&gt;" style="text;html=1;strokeColor=none;fillColor=none;align=center;verticalAlign=middle;whiteSpace=wrap;rounded=0;" vertex="1" parent="1">
          <mxGeometry x="163.75" y="558" width="80" height="30" as="geometry" />
        </mxCell>
        <mxCell id="aM6yOoi2YgJckzfjnblt-27" value="&lt;b&gt;DHCP Server&lt;/b&gt;" style="text;html=1;strokeColor=none;fillColor=none;align=center;verticalAlign=middle;whiteSpace=wrap;rounded=0;" vertex="1" parent="1">
          <mxGeometry x="641.25" y="558" width="95" height="30" as="geometry" />
        </mxCell>
        <mxCell id="aM6yOoi2YgJckzfjnblt-29" value="&lt;b&gt;DHCP Offer&lt;/b&gt;" style="text;html=1;strokeColor=none;fillColor=none;align=center;verticalAlign=middle;whiteSpace=wrap;rounded=0;" vertex="1" parent="1">
          <mxGeometry x="430" y="486" width="80" height="30" as="geometry" />
        </mxCell>
        <mxCell id="aM6yOoi2YgJckzfjnblt-30" style="edgeStyle=orthogonalEdgeStyle;rounded=0;orthogonalLoop=1;jettySize=auto;html=1;exitX=0;exitY=0.5;exitDx=0;exitDy=0;exitPerimeter=0;entryX=1;entryY=0.5;entryDx=0;entryDy=0;entryPerimeter=0;strokeWidth=2;" edge="1" parent="1" source="aM6yOoi2YgJckzfjnblt-24" target="aM6yOoi2YgJckzfjnblt-25">
          <mxGeometry relative="1" as="geometry" />
        </mxCell>
        <mxCell id="aM6yOoi2YgJckzfjnblt-42" value="" style="group" vertex="1" connectable="0" parent="1">
          <mxGeometry x="320" y="290" width="270" height="175" as="geometry" />
        </mxCell>
        <mxCell id="aM6yOoi2YgJckzfjnblt-43" value="&lt;font style=&quot;font-size: 10px;&quot;&gt;&lt;b&gt;MAC&lt;/b&gt;&lt;/font&gt;" style="rounded=1;whiteSpace=wrap;html=1;container=0;fillColor=#fff2cc;strokeColor=#d6b656;" vertex="1" parent="aM6yOoi2YgJckzfjnblt-42">
          <mxGeometry width="57.85714285714286" height="35.00000000000001" as="geometry" />
        </mxCell>
        <mxCell id="aM6yOoi2YgJckzfjnblt-44" value="&lt;font style=&quot;font-size: 10px;&quot;&gt;源MAC：DHCP server的MAC&lt;br&gt;目标MAC：广播MAC（ff:ff:ff:ff:ff:ff）&lt;/font&gt;" style="rounded=1;whiteSpace=wrap;html=1;container=0;fillColor=#fff2cc;strokeColor=#d6b656;" vertex="1" parent="aM6yOoi2YgJckzfjnblt-42">
          <mxGeometry x="57.85714285714286" width="212.14285714285717" height="35" as="geometry" />
        </mxCell>
        <mxCell id="aM6yOoi2YgJckzfjnblt-45" value="&lt;font style=&quot;font-size: 10px;&quot;&gt;&lt;b&gt;IP&lt;/b&gt;&lt;/font&gt;" style="rounded=1;whiteSpace=wrap;html=1;container=0;fillColor=#fff2cc;strokeColor=#d6b656;" vertex="1" parent="aM6yOoi2YgJckzfjnblt-42">
          <mxGeometry y="35.00000000000001" width="57.85714285714286" height="35.00000000000001" as="geometry" />
        </mxCell>
        <mxCell id="aM6yOoi2YgJckzfjnblt-46" value="&lt;font style=&quot;font-size: 10px;&quot;&gt;DHCP Server IP: 192.168.1.2&lt;br&gt;广播IP：255.255.255.255&amp;nbsp;&lt;/font&gt;" style="rounded=1;whiteSpace=wrap;html=1;container=0;fillColor=#fff2cc;strokeColor=#d6b656;" vertex="1" parent="aM6yOoi2YgJckzfjnblt-42">
          <mxGeometry x="57.85714285714286" y="35" width="212.14285714285717" height="35" as="geometry" />
        </mxCell>
        <mxCell id="aM6yOoi2YgJckzfjnblt-47" value="&lt;font style=&quot;font-size: 10px;&quot;&gt;&lt;b&gt;UDP&lt;/b&gt;&lt;/font&gt;" style="rounded=1;whiteSpace=wrap;html=1;container=0;fillColor=#fff2cc;strokeColor=#d6b656;" vertex="1" parent="aM6yOoi2YgJckzfjnblt-42">
          <mxGeometry y="70.00000000000001" width="57.85714285714286" height="35.00000000000001" as="geometry" />
        </mxCell>
        <mxCell id="aM6yOoi2YgJckzfjnblt-48" value="&lt;font style=&quot;font-size: 10px;&quot;&gt;&amp;nbsp;源端口：67&lt;br&gt;目标端口：68&lt;/font&gt;" style="rounded=1;whiteSpace=wrap;html=1;container=0;fillColor=#fff2cc;strokeColor=#d6b656;" vertex="1" parent="aM6yOoi2YgJckzfjnblt-42">
          <mxGeometry x="57.85714285714286" y="70" width="212.14285714285717" height="35" as="geometry" />
        </mxCell>
        <mxCell id="aM6yOoi2YgJckzfjnblt-49" value="&lt;font style=&quot;font-size: 10px;&quot;&gt;&lt;b&gt;BOOTP头&lt;/b&gt;&lt;/font&gt;" style="rounded=1;whiteSpace=wrap;html=1;container=0;fillColor=#fff2cc;strokeColor=#d6b656;" vertex="1" parent="aM6yOoi2YgJckzfjnblt-42">
          <mxGeometry y="105" width="57.85714285714286" height="35.00000000000001" as="geometry" />
        </mxCell>
        <mxCell id="aM6yOoi2YgJckzfjnblt-50" value="&lt;font style=&quot;font-size: 10px;&quot;&gt;Boot&amp;nbsp; reply&lt;/font&gt;" style="rounded=1;whiteSpace=wrap;html=1;container=0;fillColor=#fff2cc;strokeColor=#d6b656;" vertex="1" parent="aM6yOoi2YgJckzfjnblt-42">
          <mxGeometry x="57.85714285714286" y="105" width="212.14285714285717" height="35" as="geometry" />
        </mxCell>
        <mxCell id="aM6yOoi2YgJckzfjnblt-51" value="&lt;font style=&quot;font-size: 10px;&quot;&gt;&lt;b&gt;报文&lt;/b&gt;&lt;/font&gt;" style="rounded=1;whiteSpace=wrap;html=1;container=0;fillColor=#fff2cc;strokeColor=#d6b656;" vertex="1" parent="aM6yOoi2YgJckzfjnblt-42">
          <mxGeometry y="140" width="57.85714285714286" height="35.00000000000001" as="geometry" />
        </mxCell>
        <mxCell id="aM6yOoi2YgJckzfjnblt-52" value="&lt;span style=&quot;font-size: 10px;&quot;&gt;这是你的MAC&lt;br&gt;我分配了这个IP租给你&lt;br&gt;&lt;/span&gt;" style="rounded=1;whiteSpace=wrap;html=1;container=0;fillColor=#fff2cc;strokeColor=#d6b656;" vertex="1" parent="aM6yOoi2YgJckzfjnblt-42">
          <mxGeometry x="57.85714285714286" y="140" width="212.14285714285717" height="35" as="geometry" />
        </mxCell>
        <mxCell id="aM6yOoi2YgJckzfjnblt-53" value="&lt;b&gt;192.168.1.2&lt;/b&gt;" style="text;html=1;strokeColor=none;fillColor=none;align=center;verticalAlign=middle;whiteSpace=wrap;rounded=0;" vertex="1" parent="1">
          <mxGeometry x="637.5" y="300" width="95" height="30" as="geometry" />
        </mxCell>
        <mxCell id="aM6yOoi2YgJckzfjnblt-54" value="&lt;b&gt;192.168.1.2&lt;/b&gt;" style="text;html=1;strokeColor=none;fillColor=none;align=center;verticalAlign=middle;whiteSpace=wrap;rounded=0;" vertex="1" parent="1">
          <mxGeometry x="641.25" y="580" width="95" height="30" as="geometry" />
        </mxCell>
        <mxCell id="aM6yOoi2YgJckzfjnblt-55" value="" style="shape=mxgraph.cisco.servers.fileserver;sketch=0;html=1;pointerEvents=1;dashed=0;fillColor=#036897;strokeColor=#ffffff;strokeWidth=2;verticalLabelPosition=bottom;verticalAlign=top;align=center;outlineConnect=0;" vertex="1" parent="1">
          <mxGeometry x="645" y="740" width="60" height="88" as="geometry" />
        </mxCell>
        <mxCell id="aM6yOoi2YgJckzfjnblt-56" value="" style="shape=mxgraph.cisco.computers_and_peripherals.terminal;sketch=0;html=1;pointerEvents=1;dashed=0;fillColor=#036897;strokeColor=#ffffff;strokeWidth=2;verticalLabelPosition=bottom;verticalAlign=top;align=center;outlineConnect=0;" vertex="1" parent="1">
          <mxGeometry x="150" y="746" width="81" height="76" as="geometry" />
        </mxCell>
        <mxCell id="aM6yOoi2YgJckzfjnblt-57" value="&lt;b&gt;新加入的机器&lt;/b&gt;" style="text;html=1;strokeColor=none;fillColor=none;align=center;verticalAlign=middle;whiteSpace=wrap;rounded=0;" vertex="1" parent="1">
          <mxGeometry x="150" y="828" width="80" height="30" as="geometry" />
        </mxCell>
        <mxCell id="aM6yOoi2YgJckzfjnblt-58" value="&lt;b&gt;DHCP Server&lt;/b&gt;" style="text;html=1;strokeColor=none;fillColor=none;align=center;verticalAlign=middle;whiteSpace=wrap;rounded=0;" vertex="1" parent="1">
          <mxGeometry x="627.5" y="828" width="95" height="30" as="geometry" />
        </mxCell>
        <mxCell id="aM6yOoi2YgJckzfjnblt-59" value="&lt;b&gt;192.168.1.2&lt;/b&gt;" style="text;html=1;strokeColor=none;fillColor=none;align=center;verticalAlign=middle;whiteSpace=wrap;rounded=0;" vertex="1" parent="1">
          <mxGeometry x="627.5" y="850" width="95" height="30" as="geometry" />
        </mxCell>
        <mxCell id="aM6yOoi2YgJckzfjnblt-61" style="edgeStyle=orthogonalEdgeStyle;rounded=0;orthogonalLoop=1;jettySize=auto;html=1;exitX=1;exitY=0.5;exitDx=0;exitDy=0;exitPerimeter=0;entryX=0;entryY=0.5;entryDx=0;entryDy=0;entryPerimeter=0;" edge="1" parent="1" source="aM6yOoi2YgJckzfjnblt-56" target="aM6yOoi2YgJckzfjnblt-55">
          <mxGeometry relative="1" as="geometry" />
        </mxCell>
        <mxCell id="aM6yOoi2YgJckzfjnblt-62" value="&lt;b&gt;如果有多个DHCP响应新机器，发送reply，则一般会选择最先到达的，&lt;br&gt;并向网络发送一个request广播数据包&lt;/b&gt;" style="text;html=1;strokeColor=none;fillColor=none;align=center;verticalAlign=middle;whiteSpace=wrap;rounded=0;" vertex="1" parent="1">
          <mxGeometry x="241.25" y="792" width="400" height="30" as="geometry" />
        </mxCell>
        <mxCell id="aM6yOoi2YgJckzfjnblt-63" value="" style="group" vertex="1" connectable="0" parent="1">
          <mxGeometry x="320" y="570" width="270" height="175" as="geometry" />
        </mxCell>
        <mxCell id="aM6yOoi2YgJckzfjnblt-64" value="&lt;font style=&quot;font-size: 10px;&quot;&gt;&lt;b&gt;MAC&lt;/b&gt;&lt;/font&gt;" style="rounded=1;whiteSpace=wrap;html=1;container=0;fillColor=#fff2cc;strokeColor=#d6b656;" vertex="1" parent="aM6yOoi2YgJckzfjnblt-63">
          <mxGeometry width="57.85714285714286" height="35.00000000000001" as="geometry" />
        </mxCell>
        <mxCell id="aM6yOoi2YgJckzfjnblt-65" value="&lt;font style=&quot;font-size: 10px;&quot;&gt;源MAC：新人的MAC&lt;br&gt;目标MAC：广播MAC（ff:ff:ff:ff:ff:ff）&lt;/font&gt;" style="rounded=1;whiteSpace=wrap;html=1;container=0;fillColor=#fff2cc;strokeColor=#d6b656;" vertex="1" parent="aM6yOoi2YgJckzfjnblt-63">
          <mxGeometry x="57.85714285714286" width="212.14285714285717" height="35" as="geometry" />
        </mxCell>
        <mxCell id="aM6yOoi2YgJckzfjnblt-66" value="&lt;font style=&quot;font-size: 10px;&quot;&gt;&lt;b&gt;IP&lt;/b&gt;&lt;/font&gt;" style="rounded=1;whiteSpace=wrap;html=1;container=0;fillColor=#fff2cc;strokeColor=#d6b656;" vertex="1" parent="aM6yOoi2YgJckzfjnblt-63">
          <mxGeometry y="35.00000000000001" width="57.85714285714286" height="35.00000000000001" as="geometry" />
        </mxCell>
        <mxCell id="aM6yOoi2YgJckzfjnblt-67" value="&lt;font style=&quot;font-size: 10px;&quot;&gt;新人IP：0.0.0.0&lt;br&gt;广播IP：255.255.255.255&amp;nbsp;&lt;/font&gt;" style="rounded=1;whiteSpace=wrap;html=1;container=0;fillColor=#fff2cc;strokeColor=#d6b656;" vertex="1" parent="aM6yOoi2YgJckzfjnblt-63">
          <mxGeometry x="57.85714285714286" y="35" width="212.14285714285717" height="35" as="geometry" />
        </mxCell>
        <mxCell id="aM6yOoi2YgJckzfjnblt-68" value="&lt;font style=&quot;font-size: 10px;&quot;&gt;&lt;b&gt;UDP&lt;/b&gt;&lt;/font&gt;" style="rounded=1;whiteSpace=wrap;html=1;container=0;fillColor=#fff2cc;strokeColor=#d6b656;" vertex="1" parent="aM6yOoi2YgJckzfjnblt-63">
          <mxGeometry y="70.00000000000001" width="57.85714285714286" height="35.00000000000001" as="geometry" />
        </mxCell>
        <mxCell id="aM6yOoi2YgJckzfjnblt-69" value="&lt;font style=&quot;font-size: 10px;&quot;&gt;&amp;nbsp;源端口：68&lt;br&gt;目标端口：67&lt;/font&gt;" style="rounded=1;whiteSpace=wrap;html=1;container=0;fillColor=#fff2cc;strokeColor=#d6b656;" vertex="1" parent="aM6yOoi2YgJckzfjnblt-63">
          <mxGeometry x="57.85714285714286" y="70" width="212.14285714285717" height="35" as="geometry" />
        </mxCell>
        <mxCell id="aM6yOoi2YgJckzfjnblt-70" value="&lt;font style=&quot;font-size: 10px;&quot;&gt;&lt;b&gt;BOOTP头&lt;/b&gt;&lt;/font&gt;" style="rounded=1;whiteSpace=wrap;html=1;container=0;fillColor=#fff2cc;strokeColor=#d6b656;" vertex="1" parent="aM6yOoi2YgJckzfjnblt-63">
          <mxGeometry y="105" width="57.85714285714286" height="35.00000000000001" as="geometry" />
        </mxCell>
        <mxCell id="aM6yOoi2YgJckzfjnblt-71" value="&lt;font style=&quot;font-size: 10px;&quot;&gt;Boot&amp;nbsp; request&lt;/font&gt;" style="rounded=1;whiteSpace=wrap;html=1;container=0;fillColor=#fff2cc;strokeColor=#d6b656;" vertex="1" parent="aM6yOoi2YgJckzfjnblt-63">
          <mxGeometry x="57.85714285714286" y="105" width="212.14285714285717" height="35" as="geometry" />
        </mxCell>
        <mxCell id="aM6yOoi2YgJckzfjnblt-72" value="&lt;font style=&quot;font-size: 10px;&quot;&gt;&lt;b&gt;报文&lt;/b&gt;&lt;/font&gt;" style="rounded=1;whiteSpace=wrap;html=1;container=0;fillColor=#fff2cc;strokeColor=#d6b656;" vertex="1" parent="aM6yOoi2YgJckzfjnblt-63">
          <mxGeometry y="140" width="57.85714285714286" height="35.00000000000001" as="geometry" />
        </mxCell>
        <mxCell id="aM6yOoi2YgJckzfjnblt-73" value="&lt;span style=&quot;font-size: 10px;&quot;&gt;我的这个MAC是这个&lt;br&gt;我准备租用这个DHCP Server给我分配的IP&lt;br&gt;&lt;/span&gt;" style="rounded=1;whiteSpace=wrap;html=1;container=0;fillColor=#fff2cc;strokeColor=#d6b656;" vertex="1" parent="aM6yOoi2YgJckzfjnblt-63">
          <mxGeometry x="57.85714285714286" y="140" width="212.14285714285717" height="35" as="geometry" />
        </mxCell>
        <mxCell id="aM6yOoi2YgJckzfjnblt-74" value="" style="shape=mxgraph.cisco.servers.fileserver;sketch=0;html=1;pointerEvents=1;dashed=0;fillColor=#036897;strokeColor=#ffffff;strokeWidth=2;verticalLabelPosition=bottom;verticalAlign=top;align=center;outlineConnect=0;" vertex="1" parent="1">
          <mxGeometry x="655" y="1051" width="60" height="88" as="geometry" />
        </mxCell>
        <mxCell id="aM6yOoi2YgJckzfjnblt-75" value="" style="shape=mxgraph.cisco.computers_and_peripherals.terminal;sketch=0;html=1;pointerEvents=1;dashed=0;fillColor=#036897;strokeColor=#ffffff;strokeWidth=2;verticalLabelPosition=bottom;verticalAlign=top;align=center;outlineConnect=0;" vertex="1" parent="1">
          <mxGeometry x="160" y="1057" width="81" height="76" as="geometry" />
        </mxCell>
        <mxCell id="aM6yOoi2YgJckzfjnblt-76" value="&lt;b&gt;新加入的机器&lt;/b&gt;" style="text;html=1;strokeColor=none;fillColor=none;align=center;verticalAlign=middle;whiteSpace=wrap;rounded=0;" vertex="1" parent="1">
          <mxGeometry x="160" y="1139" width="80" height="30" as="geometry" />
        </mxCell>
        <mxCell id="aM6yOoi2YgJckzfjnblt-77" value="&lt;b&gt;DHCP Server&lt;/b&gt;" style="text;html=1;strokeColor=none;fillColor=none;align=center;verticalAlign=middle;whiteSpace=wrap;rounded=0;" vertex="1" parent="1">
          <mxGeometry x="637.5" y="1139" width="95" height="30" as="geometry" />
        </mxCell>
        <mxCell id="aM6yOoi2YgJckzfjnblt-78" value="&lt;b&gt;DHCP Offer&lt;/b&gt;" style="text;html=1;strokeColor=none;fillColor=none;align=center;verticalAlign=middle;whiteSpace=wrap;rounded=0;" vertex="1" parent="1">
          <mxGeometry x="426.25" y="1067" width="80" height="30" as="geometry" />
        </mxCell>
        <mxCell id="aM6yOoi2YgJckzfjnblt-79" style="edgeStyle=orthogonalEdgeStyle;rounded=0;orthogonalLoop=1;jettySize=auto;html=1;exitX=0;exitY=0.5;exitDx=0;exitDy=0;exitPerimeter=0;entryX=1;entryY=0.5;entryDx=0;entryDy=0;entryPerimeter=0;strokeWidth=2;" edge="1" source="aM6yOoi2YgJckzfjnblt-74" target="aM6yOoi2YgJckzfjnblt-75" parent="1">
          <mxGeometry relative="1" as="geometry" />
        </mxCell>
        <mxCell id="aM6yOoi2YgJckzfjnblt-80" value="" style="group" vertex="1" connectable="0" parent="1">
          <mxGeometry x="320" y="890" width="270" height="175" as="geometry" />
        </mxCell>
        <mxCell id="aM6yOoi2YgJckzfjnblt-81" value="&lt;font style=&quot;font-size: 10px;&quot;&gt;&lt;b&gt;MAC&lt;/b&gt;&lt;/font&gt;" style="rounded=1;whiteSpace=wrap;html=1;container=0;fillColor=#fff2cc;strokeColor=#d6b656;" vertex="1" parent="aM6yOoi2YgJckzfjnblt-80">
          <mxGeometry width="57.85714285714286" height="35.00000000000001" as="geometry" />
        </mxCell>
        <mxCell id="aM6yOoi2YgJckzfjnblt-82" value="&lt;font style=&quot;font-size: 10px;&quot;&gt;源MAC：DHCP的MAC&lt;br&gt;目标MAC：广播MAC（ff:ff:ff:ff:ff:ff）&lt;/font&gt;" style="rounded=1;whiteSpace=wrap;html=1;container=0;fillColor=#fff2cc;strokeColor=#d6b656;" vertex="1" parent="aM6yOoi2YgJckzfjnblt-80">
          <mxGeometry x="57.85714285714286" width="212.14285714285717" height="35" as="geometry" />
        </mxCell>
        <mxCell id="aM6yOoi2YgJckzfjnblt-83" value="&lt;font style=&quot;font-size: 10px;&quot;&gt;&lt;b&gt;IP&lt;/b&gt;&lt;/font&gt;" style="rounded=1;whiteSpace=wrap;html=1;container=0;fillColor=#fff2cc;strokeColor=#d6b656;" vertex="1" parent="aM6yOoi2YgJckzfjnblt-80">
          <mxGeometry y="35.00000000000001" width="57.85714285714286" height="35.00000000000001" as="geometry" />
        </mxCell>
        <mxCell id="aM6yOoi2YgJckzfjnblt-84" value="&lt;font style=&quot;font-size: 10px;&quot;&gt;DHCP Server IP：192.168.1.2&lt;br&gt;广播IP：255.255.255.255&amp;nbsp;&lt;/font&gt;" style="rounded=1;whiteSpace=wrap;html=1;container=0;fillColor=#fff2cc;strokeColor=#d6b656;" vertex="1" parent="aM6yOoi2YgJckzfjnblt-80">
          <mxGeometry x="57.85714285714286" y="35" width="212.14285714285717" height="35" as="geometry" />
        </mxCell>
        <mxCell id="aM6yOoi2YgJckzfjnblt-85" value="&lt;font style=&quot;font-size: 10px;&quot;&gt;&lt;b&gt;UDP&lt;/b&gt;&lt;/font&gt;" style="rounded=1;whiteSpace=wrap;html=1;container=0;fillColor=#fff2cc;strokeColor=#d6b656;" vertex="1" parent="aM6yOoi2YgJckzfjnblt-80">
          <mxGeometry y="70.00000000000001" width="57.85714285714286" height="35.00000000000001" as="geometry" />
        </mxCell>
        <mxCell id="aM6yOoi2YgJckzfjnblt-86" value="&lt;font style=&quot;font-size: 10px;&quot;&gt;&amp;nbsp;源端口：67&lt;br&gt;目标端口：68&lt;/font&gt;" style="rounded=1;whiteSpace=wrap;html=1;container=0;fillColor=#fff2cc;strokeColor=#d6b656;" vertex="1" parent="aM6yOoi2YgJckzfjnblt-80">
          <mxGeometry x="57.85714285714286" y="70" width="212.14285714285717" height="35" as="geometry" />
        </mxCell>
        <mxCell id="aM6yOoi2YgJckzfjnblt-87" value="&lt;font style=&quot;font-size: 10px;&quot;&gt;&lt;b&gt;BOOTP头&lt;/b&gt;&lt;/font&gt;" style="rounded=1;whiteSpace=wrap;html=1;container=0;fillColor=#fff2cc;strokeColor=#d6b656;" vertex="1" parent="aM6yOoi2YgJckzfjnblt-80">
          <mxGeometry y="105" width="57.85714285714286" height="35.00000000000001" as="geometry" />
        </mxCell>
        <mxCell id="aM6yOoi2YgJckzfjnblt-88" value="&lt;font style=&quot;font-size: 10px;&quot;&gt;Boot&amp;nbsp; reply&lt;/font&gt;" style="rounded=1;whiteSpace=wrap;html=1;container=0;fillColor=#fff2cc;strokeColor=#d6b656;" vertex="1" parent="aM6yOoi2YgJckzfjnblt-80">
          <mxGeometry x="57.85714285714286" y="105" width="212.14285714285717" height="35" as="geometry" />
        </mxCell>
        <mxCell id="aM6yOoi2YgJckzfjnblt-89" value="&lt;font style=&quot;font-size: 10px;&quot;&gt;&lt;b&gt;报文&lt;/b&gt;&lt;/font&gt;" style="rounded=1;whiteSpace=wrap;html=1;container=0;fillColor=#fff2cc;strokeColor=#d6b656;" vertex="1" parent="aM6yOoi2YgJckzfjnblt-80">
          <mxGeometry y="140" width="57.85714285714286" height="35.00000000000001" as="geometry" />
        </mxCell>
        <mxCell id="aM6yOoi2YgJckzfjnblt-90" value="&lt;span style=&quot;font-size: 10px;&quot;&gt;DHCP ACK&lt;br&gt;这个新人IP是我租的，租约在此&lt;br&gt;&lt;/span&gt;" style="rounded=1;whiteSpace=wrap;html=1;container=0;fillColor=#fff2cc;strokeColor=#d6b656;" vertex="1" parent="aM6yOoi2YgJckzfjnblt-80">
          <mxGeometry x="57.85714285714286" y="140" width="212.14285714285717" height="35" as="geometry" />
        </mxCell>
      </root>
    </mxGraphModel>
  </diagram>
</mxfile>
